<?xml version="1.0" encoding="UTF-8" standalone="no"?>
<!-- Created with Inkscape (http://www.inkscape.org/) -->

<svg
   xmlns:dc="http://purl.org/dc/elements/1.1/"
   xmlns:cc="http://creativecommons.org/ns#"
   xmlns:rdf="http://www.w3.org/1999/02/22-rdf-syntax-ns#"
   xmlns:svg="http://www.w3.org/2000/svg"
   xmlns="http://www.w3.org/2000/svg"
   xmlns:sodipodi="http://sodipodi.sourceforge.net/DTD/sodipodi-0.dtd"
   xmlns:inkscape="http://www.inkscape.org/namespaces/inkscape"
   width="410"
   height="180"
   id="svg2"
   version="1.1"
   inkscape:version="0.48.0 r9654"
   sodipodi:docname="ghoti_why_so_serious.svg"
   inkscape:export-filename="/home/jdj/ghoti_why_so_serious.png"
   inkscape:export-xdpi="122.44"
   inkscape:export-ydpi="122.44">
  <defs
     id="defs4" />
  <sodipodi:namedview
     id="base"
     pagecolor="#ffffff"
     bordercolor="#666666"
     borderopacity="1.0"
     inkscape:pageopacity="0.0"
     inkscape:pageshadow="2"
     inkscape:zoom="0.98994949"
     inkscape:cx="191.73063"
     inkscape:cy="14.441609"
     inkscape:document-units="px"
     inkscape:current-layer="layer1"
     showgrid="true"
     inkscape:window-width="1280"
     inkscape:window-height="950"
     inkscape:window-x="-1"
     inkscape:window-y="0"
     inkscape:window-maximized="1">
    <inkscape:grid
       type="xygrid"
       id="grid3815"
       empspacing="5"
       visible="true"
       enabled="true"
       snapvisiblegridlinesonly="true" />
  </sodipodi:namedview>
  <metadata
     id="metadata7">
    <rdf:RDF>
      <cc:Work
         rdf:about="">
        <dc:format>image/svg+xml</dc:format>
        <dc:type
           rdf:resource="http://purl.org/dc/dcmitype/StillImage" />
        <dc:title></dc:title>
      </cc:Work>
    </rdf:RDF>
  </metadata>
  <g
     inkscape:label="Layer 1"
     inkscape:groupmode="layer"
     id="layer1"
     transform="translate(0,-872.36218)">
    <path
       style="fill:#000000"
       d="m 119.65088,1034.4718 c -11.31799,-1.2987 -14.12024,-1.8987 -30.75627,-6.5851 -25.95423,-7.3113 -49.09209,-22.3716 -65.49331,-42.62925 -4.24304,-5.24071 -4.16879,-6.02768 1.09993,-11.65843 2.00731,-2.14523 4.69397,-5.30011 5.97036,-7.01084 3.64208,-4.88142 16.44704,-14.86196 23.11156,-18.01378 3.33233,-1.57594 7.62862,-4.06272 9.54732,-5.52618 1.9187,-1.46347 5.18321,-3.27556 7.25447,-4.02688 2.07127,-0.75132 6.24094,-2.4659 9.26594,-3.81018 3.025,-1.34427 9.1,-3.23367 13.5,-4.19866 4.4,-0.96499 11.825,-2.70315 16.5,-3.86257 7.67229,-1.90277 11.42131,-2.1118 38.5,-2.14656 l 30,-0.0385 14,3.33488 c 26.4266,6.29497 37.0157,9.07458 46.45475,12.19427 17.05144,5.63565 42.21064,15.99113 61.35287,25.25271 l 18.80761,9.09969 7.69239,-3.80021 c 10.04035,-4.96016 30.57974,-16.93745 45.88611,-26.75792 6.70656,-4.30288 12.55656,-7.81565 13,-7.80614 0.44345,0.01 1.81546,1.46101 3.04893,3.22558 l 2.24265,3.2083 -11.24265,7.32254 c -13.26473,8.63955 -32.13757,19.93985 -42.97313,25.73059 l -7.73048,4.13131 8.23048,4.37335 c 10.92804,5.80672 27.92049,16.04788 45.95084,27.69398 l 14.72037,9.5082 -2.62532,3.442 c -1.55112,2.0336 -3.19742,3.2224 -4.02354,2.9054 -0.76903,-0.2951 -6.88681,-4.2908 -13.59506,-8.8794 -10.33624,-7.0701 -30.28891,-19.0204 -52.51782,-31.4546 l -5.32099,-2.97641 -12.189,6.62594 c -12.48848,6.78873 -27.61589,13.60037 -42.66901,19.21327 -18.95539,7.0679 -23.69814,8.8039 -28,10.2492 -8.01402,2.6925 -37.31617,9.8074 -44,10.6837 -3.575,0.4687 -10.325,1.3875 -15,2.0418 -9.96233,1.3942 -48.59903,2.0237 -58,0.9449 z m 57,-9.9218 c 4.125,-0.5932 10.2,-1.3528 13.5,-1.6881 3.3,-0.3353 8.025,-1.2708 10.5,-2.0788 4.48166,-1.4632 6.39586,-2.0098 23.5,-6.7107 20.73068,-5.6977 57.22338,-19.89218 77.8737,-30.29045 l 7.87369,-3.96473 -11.37369,-5.13521 c -30.74825,-13.88278 -74.8882,-30.03119 -91.89784,-33.62043 -4.11172,-0.86763 -9.95086,-2.26376 -12.97586,-3.10252 -15.27125,-4.23436 -67.67517,-5.46173 -81.5,-1.90884 -3.3,0.84808 -7.8,1.91401 -10,2.36875 -2.2,0.45473 -6.34134,1.31042 -9.20298,1.90153 -2.86164,0.59111 -8.83419,2.90049 -13.27235,5.13194 -4.43815,2.23146 -10.43727,4.94315 -13.33139,6.02598 -5.64504,2.11208 -22.8199,15.24292 -31.00067,23.70119 l -4.80739,4.97047 3.30739,3.53395 c 1.81907,1.94367 3.84507,4.15199 4.50222,4.90738 0.65716,0.75539 3.3118,2.94844 5.89919,4.87344 2.5874,1.925 6.32472,4.90017 8.30517,6.61145 1.98044,1.7113 7.87581,5.3407 13.10081,8.0652 5.225,2.7245 10.4,5.4454 11.5,6.0464 1.1,0.601 5.375,2.0603 9.5,3.2428 4.125,1.1825 9.75,2.8387 12.5,3.6805 6.43538,1.9699 12.39357,3.2143 20.5,4.2815 8.48083,1.1166 47.3738,0.5416 57,-0.8427 z"
       id="path2996"
       inkscape:connector-curvature="0" />
    <path
       style="fill:none;stroke:#008000;stroke-width:10;stroke-linecap:butt;stroke-linejoin:miter;stroke-miterlimit:4;stroke-opacity:1;stroke-dasharray:none"
       d="m 174.008,894.89342 -4.99999,30.35714"
       id="path3768"
       inkscape:connector-curvature="0"
       sodipodi:nodetypes="cc" />
    <path
       style="fill:none;stroke:#008000;stroke-width:10;stroke-linecap:butt;stroke-linejoin:miter;stroke-miterlimit:4;stroke-opacity:1;stroke-dasharray:none"
       d="m 205.79373,899.53627 c 1.42857,2.85715 -10,31.42858 -10,31.42858"
       id="path3770"
       inkscape:connector-curvature="0"
       sodipodi:nodetypes="cc" />
    <path
       style="fill:none;stroke:#008000;stroke-width:10;stroke-linecap:butt;stroke-linejoin:miter;stroke-miterlimit:4;stroke-opacity:1;stroke-dasharray:none"
       d="m 223.29373,936.67913 18.57143,-31.42857"
       id="path3772"
       inkscape:connector-curvature="0"
       sodipodi:nodetypes="cc" />
    <path
       sodipodi:type="arc"
       style="fill:#ffffff;stroke:#000000;stroke-width:10;stroke-miterlimit:4;stroke-dasharray:none"
       id="path3776"
       sodipodi:cx="239.28572"
       sodipodi:cy="313.43362"
       sodipodi:rx="10"
       sodipodi:ry="8.9285717"
       d="m 249.28572,313.43362 c 0,4.93112 -4.47715,8.92858 -10,8.92858 -5.52285,0 -10,-3.99746 -10,-8.92858 0,-4.93111 4.47715,-8.92857 10,-8.92857 5.52285,0 10,3.99746 10,8.92857 z"
       transform="translate(-157.7777,649.6741)" />
    <path
       style="fill:none;stroke:#ff0000;stroke-width:5;stroke-linecap:butt;stroke-linejoin:miter;stroke-miterlimit:4;stroke-opacity:1;stroke-dasharray:none"
       d="m 60.79373,1005.6077 c 44.28571,-4.2857 43.57143,-2.8571 43.57143,-2.8571 l 21.42857,-17.85718"
       id="path3782"
       inkscape:connector-curvature="0" />
    <path
       style="fill:none;stroke:#000000;stroke-width:1px;stroke-linecap:butt;stroke-linejoin:miter;stroke-opacity:1"
       d="m 132.90729,930.10642 18.68782,44.95179 -25.75889,52.52789"
       id="path3786"
       inkscape:connector-curvature="0" />
    <path
       style="fill:#800080;stroke:#800080;stroke-width:2.52538133;stroke-miterlimit:4;stroke-dasharray:none"
       d="m 127.94582,1025.3531 c 0,-0.1082 5.47397,-11.3806 12.16438,-25.0499 8.49311,-17.35245 12.0815,-25.18154 11.8898,-25.94102 -0.15102,-0.59827 -3.82702,-9.61092 -8.1689,-20.02812 -4.34188,-10.4172 -8.01197,-19.22447 -8.15577,-19.57171 -0.50659,-1.22336 26.59202,-0.47871 42.77812,1.1755 15.0585,1.53898 35.47017,6.62361 57.52231,14.32905 19.61116,6.85251 41.16159,15.36599 60.55031,23.92034 l 12.76422,5.6316 -4.43046,2.24077 c -13.08274,6.61679 -34.14527,15.53967 -53.17032,22.52499 -14.26776,5.2386 -19.6363,6.9693 -35.51131,11.4483 -6.99791,1.9744 -14.20082,4.0165 -16.00647,4.538 -6.13938,1.7731 -20.64782,3.668 -34.1994,4.4666 -8.25022,0.4862 -38.02651,0.7334 -38.02651,0.3156 z"
       id="path3788"
       inkscape:connector-curvature="0" />
    <path
       style="fill:none;stroke:#008000;stroke-width:10;stroke-linecap:butt;stroke-linejoin:miter;stroke-miterlimit:4;stroke-opacity:1;stroke-dasharray:none"
       d="m 137.93658,894.00056 5.7143,33.21428"
       id="path3768-9"
       inkscape:connector-curvature="0"
       sodipodi:nodetypes="cc" />
    <path
       style="fill:none;stroke:#008000;stroke-width:10;stroke-linecap:butt;stroke-linejoin:miter;stroke-miterlimit:4;stroke-opacity:1;stroke-dasharray:none"
       d="m 92.93658,896.50057 11.07144,33.21428"
       id="path3768-4"
       inkscape:connector-curvature="0"
       sodipodi:nodetypes="cc" />
  </g>
</svg>
